# xmcd
#
# Track frame offsets: 
#        150
#        15611
#        38482
#        52541
#        66085
#        79821
#        90790
#        104346
#        119412
#        132372
#        145191
#        160901
#        178269
#        198114
#        217327
#        238875
#        256000
#        271459
#
# Disc length: 3852 seconds
#
# Revision: 0
# Processed by: cddbd v1.5.2PL0 Copyright (c) Steve Scherf et al.
# Submitted via: ExactAudioCopy v0.99pb4
#
DISCID=f30f0a12
DTITLE=Gwen McCrae - Rockin' Chair - Let's Straighten It Out
DYEAR=1974
DGENRE=R&B
TTITLE0=Rockin' Chair
TTITLE1=Move Me Baby
TTITLE2=He Keeps Something Groovy Going On
TTITLE3=Let Them Talk
TTITLE4=For Your Love
TTITLE5=It's Worth The Hurt
TTITLE6=Ninety Percent Of Me Is You
TTITLE7=It Keeps On Raining
TTITLE8=He Don't Ever Lose His Groove
TTITLE9=Your Love Is Worse Than A Cold
TTITLE10=Early Morning Love
TTITLE11=Starting All Over Again
TTITLE12=Tonight's The Night
TTITLE13=Signed, Sealed, Delivered (I'm Yours)
TTITLE14=Let's Straighten It Out
TTITLE15=Love Insurance
TTITLE16=Cradle Of Love
TTITLE17=At Bedtime
EXTD=
EXTT0=
EXTT1=
EXTT2=
EXTT3=
EXTT4=
EXTT5=
EXTT6=
EXTT7=
EXTT8=
EXTT9=
EXTT10=
EXTT11=
EXTT12=
EXTT13=
EXTT14=
EXTT15=
EXTT16=
EXTT17=
PLAYORDER=
